<?xml version="1.0" standalone="no"?><!DOCTYPE svg PUBLIC "-//W3C//DTD SVG 1.1//EN" "http://www.w3.org/Graphics/SVG/1.1/DTD/svg11.dtd"><svg t="1612035440977" class="icon" viewBox="0 0 1024 1024" version="1.1" xmlns="http://www.w3.org/2000/svg" p-id="2067" xmlns:xlink="http://www.w3.org/1999/xlink" width="200" height="200"><defs><style type="text/css"></style></defs><path d="M405.333333 170.666667h213.333334a21.333333 21.333333 0 0 0 0-42.666667H405.333333a21.333333 21.333333 0 0 0 0 42.666667zM448 725.333333a21.333333 21.333333 0 0 0 21.333333-21.333333V448a21.333333 21.333333 0 0 0-42.666666 0v256a21.333333 21.333333 0 0 0 21.333333 21.333333z" fill="#646464" p-id="2068"></path><path d="M832 256H192a21.333333 21.333333 0 0 0 0 42.666667h64v576a21.333333 21.333333 0 0 0 21.333333 21.333333h469.333334a21.333333 21.333333 0 0 0 21.333333-21.333333V298.666667h64a21.333333 21.333333 0 0 0 0-42.666667z m-106.666667 597.333333H298.666667V298.666667h426.666666z" fill="#646464" p-id="2069"></path><path d="M576 725.333333a21.333333 21.333333 0 0 0 21.333333-21.333333V448a21.333333 21.333333 0 0 0-42.666666 0v256a21.333333 21.333333 0 0 0 21.333333 21.333333z" fill="#646464" p-id="2070"></path></svg>