<?xml version="1.0" standalone="no"?><!DOCTYPE svg PUBLIC "-//W3C//DTD SVG 1.1//EN" "http://www.w3.org/Graphics/SVG/1.1/DTD/svg11.dtd"><svg t="1612171538061" class="icon" viewBox="0 0 1024 1024" version="1.1" xmlns="http://www.w3.org/2000/svg" p-id="1369" xmlns:xlink="http://www.w3.org/1999/xlink" width="200" height="200"><defs><style type="text/css"></style></defs><path d="M400.213333 85.333333a42.666667 42.666667 0 0 0-38.101333 23.509334L298.88 234.666667H128a42.666667 42.666667 0 0 0-42.666667 42.666666v42.666667a42.666667 42.666667 0 0 0 42.666667 42.666667h768a42.666667 42.666667 0 0 0 42.666667-42.666667v-42.666667a42.666667 42.666667 0 0 0-42.666667-42.666666h-170.88l-63.232-125.824A42.666667 42.666667 0 0 0 623.744 85.333333H400.256z m233.685334 149.333334l-30.421334-53.248A21.333333 21.333333 0 0 0 584.96 170.666667h-145.92a21.333333 21.333333 0 0 0-18.517333 10.752L390.101333 234.666667h243.797334zM798.72 426.666667H225.322667a42.666667 42.666667 0 0 0-41.386667 52.992l90.453333 362.069333A128 128 0 0 0 398.634667 938.666667h226.816a128 128 0 0 0 124.16-96.938667l90.496-362.069333A42.666667 42.666667 0 0 0 798.72 426.666667z" p-id="1370" fill="#707070"></path></svg>