<?xml version="1.0" standalone="no"?><!DOCTYPE svg PUBLIC "-//W3C//DTD SVG 1.1//EN" "http://www.w3.org/Graphics/SVG/1.1/DTD/svg11.dtd"><svg t="1612035418366" class="icon" viewBox="0 0 1024 1024" version="1.1" xmlns="http://www.w3.org/2000/svg" p-id="1932" xmlns:xlink="http://www.w3.org/1999/xlink" width="200" height="200"><defs><style type="text/css"></style></defs><path d="M889.749333 219.584l-85.333333-85.333333a21.333333 21.333333 0 0 0-30.165333 0l-256 256A21.333333 21.333333 0 0 0 512 405.333333v85.333334a21.333333 21.333333 0 0 0 21.333333 21.333333h85.333334a21.333333 21.333333 0 0 0 15.082666-6.250667l256-256a21.333333 21.333333 0 0 0 0-30.165333zM609.834667 469.333333H554.666667v-55.168l234.666666-234.666666L844.501333 234.666667z" fill="#646464" p-id="1933"></path><path d="M832 469.333333a21.333333 21.333333 0 0 0-21.333333 21.333334v320a42.709333 42.709333 0 0 1-42.666667 42.666666H213.333333a42.709333 42.709333 0 0 1-42.666666-42.666666V341.333333a42.709333 42.709333 0 0 1 42.666666-42.666666h234.666667a21.333333 21.333333 0 0 0 0-42.666667H213.333333a85.44 85.44 0 0 0-85.333333 85.333333v469.333334a85.44 85.44 0 0 0 85.333333 85.333333h554.666667a85.44 85.44 0 0 0 85.333333-85.333333V490.666667a21.333333 21.333333 0 0 0-21.333333-21.333334z" fill="#646464" p-id="1934"></path></svg>