<?xml version="1.0" standalone="no"?><!DOCTYPE svg PUBLIC "-//W3C//DTD SVG 1.1//EN" "http://www.w3.org/Graphics/SVG/1.1/DTD/svg11.dtd"><svg t="1611756535187" class="icon" viewBox="0 0 1024 1024" version="1.1" xmlns="http://www.w3.org/2000/svg" p-id="2315" xmlns:xlink="http://www.w3.org/1999/xlink" width="200" height="200"><defs><style type="text/css"></style></defs><path d="M341.333333 85.333333m21.333334 0l298.666666 0q21.333333 0 21.333334 21.333334l0 42.666666q0 21.333333-21.333334 21.333334l-298.666666 0q-21.333333 0-21.333334-21.333334l0-42.666666q0-21.333333 21.333334-21.333334Z" fill="#80d1e3" p-id="2316"></path><path d="M746.666667 128h-21.333334v21.333333a64.064 64.064 0 0 1-64 64H362.666667a64.064 64.064 0 0 1-64-64V128h-21.333334a106.773333 106.773333 0 0 0-106.666666 106.666667v597.333333a106.773333 106.773333 0 0 0 106.666666 106.666667h469.333334a106.773333 106.773333 0 0 0 106.666666-106.666667V234.666667a106.773333 106.773333 0 0 0-106.666666-106.666667zM533.333333 768h-170.666666a21.333333 21.333333 0 0 1 0-42.666667h170.666666a21.333333 21.333333 0 0 1 0 42.666667z m128-128H362.666667a21.333333 21.333333 0 0 1 0-42.666667h298.666666a21.333333 21.333333 0 0 1 0 42.666667z m0-128H362.666667a21.333333 21.333333 0 0 1 0-42.666667h298.666666a21.333333 21.333333 0 0 1 0 42.666667z m0-128H362.666667a21.333333 21.333333 0 0 1 0-42.666667h298.666666a21.333333 21.333333 0 0 1 0 42.666667z" fill="#80d1e3" p-id="2317"></path></svg>