<?xml version="1.0" standalone="no"?><!DOCTYPE svg PUBLIC "-//W3C//DTD SVG 1.1//EN" "http://www.w3.org/Graphics/SVG/1.1/DTD/svg11.dtd"><svg t="1611756526187" class="icon" viewBox="0 0 1024 1024" version="1.1" xmlns="http://www.w3.org/2000/svg" p-id="2180" xmlns:xlink="http://www.w3.org/1999/xlink" width="200" height="200"><defs><style type="text/css"></style></defs><path d="M746.666667 128h-64V106.666667a21.333333 21.333333 0 0 0-21.333334-21.333334H362.666667a21.333333 21.333333 0 0 0-21.333334 21.333334v21.333333h-64a106.773333 106.773333 0 0 0-106.666666 106.666667v597.333333a106.773333 106.773333 0 0 0 106.666666 106.666667h469.333334a106.773333 106.773333 0 0 0 106.666666-106.666667V234.666667a106.773333 106.773333 0 0 0-106.666666-106.666667zM384 128h256v42.666667H384z m426.666667 704a64.064 64.064 0 0 1-64 64H277.333333a64.064 64.064 0 0 1-64-64V234.666667a64.064 64.064 0 0 1 64-64h64v21.333333a21.333333 21.333333 0 0 0 21.333334 21.333333h298.666666a21.333333 21.333333 0 0 0 21.333334-21.333333V170.666667h64a64.064 64.064 0 0 1 64 64z" fill="#646464" p-id="2181"></path><path d="M661.333333 341.333333H362.666667a21.333333 21.333333 0 0 0 0 42.666667h298.666666a21.333333 21.333333 0 0 0 0-42.666667zM661.333333 469.333333H362.666667a21.333333 21.333333 0 0 0 0 42.666667h298.666666a21.333333 21.333333 0 0 0 0-42.666667zM661.333333 597.333333H362.666667a21.333333 21.333333 0 0 0 0 42.666667h298.666666a21.333333 21.333333 0 0 0 0-42.666667zM533.333333 725.333333h-170.666666a21.333333 21.333333 0 0 0 0 42.666667h170.666666a21.333333 21.333333 0 0 0 0-42.666667z" fill="#646464" p-id="2182"></path></svg>